<svg width="29" height="30" viewBox="0 0 29 30" fill="none" xmlns="http://www.w3.org/2000/svg">
<g clipPath="url(#clip0_428:2149)">
<path d="M23.219 23.5326C22.6631 22.8284 22.2046 22.0526 21.8557 21.2261C21.5126 20.1096 21.3959 18.9359 21.5125 17.7737L22.1082 14.3953C22.4304 12.5945 22.0839 10.7379 21.1338 9.17454C20.1837 7.61115 18.6954 6.44852 16.9486 5.90507L17.1041 5.02285C17.1468 4.78071 17.0916 4.53152 16.9505 4.33011C16.8095 4.1287 16.5943 3.99156 16.3521 3.94886C16.11 3.90617 15.8608 3.96141 15.6594 4.10244C15.458 4.24347 15.3208 4.45874 15.2781 4.70088L15.1202 5.59678C13.3059 5.52927 11.5286 6.12154 10.1175 7.2639C8.70644 8.40626 7.75716 10.0213 7.4455 11.8099L6.84979 15.1883C6.56188 16.3203 6.05079 17.3833 5.3465 18.315C4.7447 18.9722 4.05777 19.5459 3.30396 20.021C3.21971 20.0722 3.14733 20.1408 3.09164 20.2222C3.03596 20.3035 2.99824 20.3958 2.98099 20.4929L2.81699 21.423C2.78501 21.6044 2.82639 21.7911 2.93203 21.9419C3.03767 22.0928 3.19891 22.1955 3.38029 22.2275L22.3926 25.5799C22.5739 25.6119 22.7606 25.5705 22.9115 25.4648C23.0623 25.3592 23.1651 25.1979 23.197 25.0166L23.361 24.0865C23.378 23.9893 23.3742 23.8897 23.3497 23.7942C23.3252 23.6987 23.2806 23.6095 23.219 23.5326ZM4.36008 20.9899C5.10476 20.4875 5.78646 19.8974 6.39055 19.2325C7.26833 18.112 7.89387 16.8152 8.22442 15.4307L8.82013 12.0523C8.93433 11.246 9.20962 10.4709 9.62959 9.77324C10.0496 9.07556 10.6056 8.46953 11.2647 7.99124C11.9238 7.51294 12.6724 7.17216 13.4659 6.98919C14.2594 6.80622 15.0816 6.7848 15.8835 6.92621C16.6855 7.06762 17.4508 7.36896 18.1339 7.81229C18.8169 8.25562 19.4038 8.83188 19.8596 9.50674C20.3153 10.1816 20.6306 10.9413 20.7866 11.7405C20.9426 12.5398 20.9362 13.3622 20.7678 14.1589L20.1721 17.5374C20.0091 18.9514 20.1534 20.384 20.595 21.7371C20.9353 22.5686 21.3741 23.3562 21.902 24.0831L4.36008 20.9899Z" fill="#0DA7F6"/>
<path d="M12.5179 26.1937C12.9504 26.2598 13.3924 26.1707 13.7656 25.9423C14.1388 25.7139 14.4192 25.3608 14.5572 24.9456L10.96 24.3113C10.9474 24.7606 11.0984 25.1992 11.385 25.5454C11.6715 25.8917 12.0741 26.1221 12.5179 26.1937Z" fill="#0DA7F6"/>
<circle cx="21.1996" cy="8.62893" r="3.5" transform="rotate(10 21.1996 8.62893)" fill="#0DA7F6" stroke="#E4E9EA"/>
</g>
<defs>
<clipPath id="clip0_428:2149">
<rect width="25" height="25" fill="white" transform="translate(4.34131 0.579346) rotate(10)"/>
</clipPath>
</defs>
</svg>
