<svg width="22" height="23" viewBox="0 0 22 23" fill="none" xmlns="http://www.w3.org/2000/svg">
<path d="M21.219 20.5326C20.6631 19.8284 20.2046 19.0526 19.8557 18.2261C19.5126 17.1096 19.3959 15.9359 19.5125 14.7737L20.1082 11.3953C20.4304 9.59445 20.0839 7.73793 19.1338 6.17454C18.1837 4.61115 16.6954 3.44852 14.9486 2.90507L15.1041 2.02285C15.1468 1.78071 15.0916 1.53152 14.9505 1.33011C14.8095 1.1287 14.5943 0.991561 14.3521 0.948865C14.11 0.906169 13.8608 0.961412 13.6594 1.10244C13.458 1.24347 13.3208 1.45874 13.2781 1.70088L13.1202 2.59678C11.3059 2.52927 9.52861 3.12154 8.11753 4.2639C6.70644 5.40626 5.75716 7.02129 5.4455 8.80987L4.84979 12.1883C4.56188 13.3203 4.05079 14.3833 3.3465 15.315C2.7447 15.9722 2.05777 16.5459 1.30396 17.021C1.21971 17.0722 1.14733 17.1408 1.09164 17.2222C1.03596 17.3035 0.998235 17.3958 0.98099 17.4929L0.816989 18.423C0.785007 18.6044 0.826388 18.7911 0.932028 18.9419C1.03767 19.0928 1.19891 19.1955 1.38029 19.2275L20.3926 22.5799C20.5739 22.6119 20.7606 22.5705 20.9115 22.4648C21.0623 22.3592 21.1651 22.198 21.197 22.0166L21.361 21.0865C21.378 20.9893 21.3742 20.8897 21.3497 20.7942C21.3252 20.6987 21.2806 20.6095 21.219 20.5326ZM2.36008 17.9899C3.10476 17.4875 3.78646 16.8974 4.39055 16.2325C5.26833 15.112 5.89387 13.8152 6.22442 12.4307L6.82013 9.05225C6.93433 8.24597 7.20962 7.47092 7.62959 6.77324C8.04957 6.07556 8.60565 5.46953 9.26471 4.99124C9.92378 4.51294 10.6724 4.17216 11.4659 3.98919C12.2594 3.80622 13.0816 3.7848 13.8835 3.92621C14.6855 4.06762 15.4508 4.36896 16.1339 4.81229C16.8169 5.25562 17.4038 5.83188 17.8596 6.50674C18.3153 7.1816 18.6306 7.94128 18.7866 8.74052C18.9426 9.53976 18.9362 10.3622 18.7678 11.1589L18.1721 14.5374C18.0091 15.9514 18.1534 17.384 18.595 18.7371C18.9353 19.5686 19.3741 20.3562 19.902 21.0831L2.36008 17.9899Z" fill="#0DA7F6"/>
</svg>
