<svg width="15" height="15" viewBox="0 0 15 15" fill="none" xmlns="http://www.w3.org/2000/svg">
<path d="M7.5 0C3.35826 0 0 3.35826 0 7.5C0 11.6417 3.35826 15 7.5 15C11.6417 15 15 11.6417 15 7.5C15 3.35826 11.6417 0 7.5 0ZM7.5 13.7277C4.06138 13.7277 1.27232 10.9386 1.27232 7.5C1.27232 4.06138 4.06138 1.27232 7.5 1.27232C10.9386 1.27232 13.7277 4.06138 13.7277 7.5C13.7277 10.9386 10.9386 13.7277 7.5 13.7277ZM7.59375 4.80971C8.48103 4.80971 9.0837 5.37556 9.15067 6.20591C9.15569 6.27623 9.21428 6.3298 9.2846 6.3298H10.2338C10.2773 6.3298 10.3125 6.29464 10.3125 6.25112C10.3125 4.79966 9.16741 3.78348 7.58873 3.78348C5.74888 3.78348 4.6875 5.02567 4.6875 7.07812V7.95368C4.6875 9.99107 5.74888 11.2165 7.58873 11.2165C9.16239 11.2165 10.3125 10.2321 10.3125 8.84933C10.3125 8.8058 10.2773 8.77065 10.2338 8.77065H9.28292C9.21261 8.77065 9.15569 8.82422 9.149 8.89286C9.07868 9.66462 8.47768 10.1953 7.59208 10.1953C6.49888 10.1953 5.88281 9.39342 5.88281 7.95871V7.07812C5.88449 5.62165 6.50223 4.80971 7.59375 4.80971Z" fill="#252D38"/>
</svg>
