<svg width="25" height="19" viewBox="0 0 25 19" fill="none" xmlns="http://www.w3.org/2000/svg">
<path d="M12.4994 12.5008C14.3404 12.5008 15.8329 11.0084 15.8329 9.16741C15.8329 7.32641 14.3404 5.83398 12.4994 5.83398C10.6584 5.83398 9.16602 7.32641 9.16602 9.16741C9.16602 11.0084 10.6584 12.5008 12.4994 12.5008Z" fill="#1E2D3D"/>
<path d="M24.9504 8.88358C23.9702 6.34822 22.2686 4.15563 20.0559 2.57681C17.8432 0.997991 15.2163 0.102147 12.5 0C9.78369 0.102147 7.15684 0.997991 4.94412 2.57681C2.7314 4.15563 1.02981 6.34822 0.0496469 8.88358C-0.016549 9.06668 -0.016549 9.26717 0.0496469 9.45027C1.02981 11.9856 2.7314 14.1782 4.94412 15.757C7.15684 17.3359 9.78369 18.2317 12.5 18.3339C15.2163 18.2317 17.8432 17.3359 20.0559 15.757C22.2686 14.1782 23.9702 11.9856 24.9504 9.45027C25.0166 9.26717 25.0166 9.06668 24.9504 8.88358ZM12.5 14.5837C11.4287 14.5837 10.3814 14.2661 9.49058 13.6708C8.59978 13.0756 7.9055 12.2296 7.49551 11.2399C7.08552 10.2501 6.97825 9.16092 7.18726 8.11016C7.39627 7.0594 7.91217 6.09421 8.66973 5.33666C9.42729 4.5791 10.3925 4.0632 11.4432 3.85419C12.494 3.64518 13.5831 3.75245 14.5729 4.16244C15.5627 4.57242 16.4087 5.26671 17.0039 6.1575C17.5991 7.04829 17.9168 8.09558 17.9168 9.16693C17.9146 10.6029 17.3432 11.9794 16.3278 12.9948C15.3125 14.0101 13.936 14.5815 12.5 14.5837Z" fill="#1E2D3D"/>
</svg>
