<svg width="185" height="77" viewBox="0 0 185 77" fill="none" xmlns="http://www.w3.org/2000/svg">
<path d="M0.0101817 31.727C0.0101817 25.6893 0.0101817 19.6549 0.0101817 13.6171C0.0101817 11.8488 0.040727 10.0806 0.427634 8.34631C1.3949 3.99191 4.62592 1.05956 9.15001 0.401144C10.9318 0.143206 12.717 -0.0264905 14.5226 0.00744873C18.2763 0.0753272 22.0367 -0.19958 25.7734 0.380781C27.5247 0.652295 29.2217 1.10708 30.844 1.8232C36.0638 4.12088 37.3705 8.5228 36.875 12.9281C36.8071 13.5322 36.6713 14.1329 36.5118 14.7167C35.6701 17.7984 33.6745 19.7227 30.6234 20.6119C28.8008 21.1448 26.924 21.3959 25.0641 21.7523C24.5448 21.8507 23.7948 21.8338 23.6998 22.4311C23.5945 23.1167 24.3141 23.4119 24.8469 23.6902C25.9058 24.2434 27.0665 24.5217 28.2001 24.8645C30.0124 25.4109 31.7976 26.0151 33.5489 26.7482C38.6669 28.8931 41.2837 32.8504 41.9726 38.2332C42.3256 40.9958 42.2849 43.7381 41.5925 46.4533C40.8866 49.2193 39.1794 51.0588 36.4914 52.0091C34.2107 52.8169 31.835 53.1902 29.4524 53.55C24.4804 54.3034 19.4743 54.3238 14.4615 54.2627C14.3325 54.2627 14.2036 54.2627 14.0746 54.2559C13.8336 54.2423 13.6028 54.1778 13.5825 53.9029C13.5621 53.6077 13.8031 53.5567 14.0373 53.5364C14.7093 53.4787 15.3813 53.4244 16.0532 53.3633C19.0603 53.0952 22.0401 52.6845 24.9793 51.9514C28.3902 51.1029 30.3111 48.9478 30.922 45.5471C31.6042 41.7493 31.3938 38.0092 30.1346 34.3438C29.0078 31.0584 26.7577 28.8184 23.6692 27.3353C21.6362 26.3579 19.4879 25.7164 17.3429 25.0648C16.4232 24.7865 15.5 24.5014 14.6346 24.0771C14.1764 23.8531 13.7182 23.602 13.3177 23.2897C12.4659 22.6279 12.5507 22.0408 13.5485 21.5792C14.285 21.2398 15.0826 21.1244 15.8768 21.009C17.0205 20.8461 18.1677 20.7036 19.3046 20.5135C22.8139 19.9332 24.8469 17.778 25.6988 14.4146C26.1773 12.5208 26.218 10.6101 25.804 8.69249C24.8096 4.0564 21.2629 2.13204 17.774 1.18175C17.3905 1.07653 17.0748 1.26999 16.766 1.41593C13.4264 2.98052 11.7226 5.72621 11.1355 9.26946C10.8945 10.7356 10.9149 12.212 10.9149 13.6883C10.9115 26.8228 10.9115 39.9573 10.9115 53.0884C10.9115 54.3068 10.9115 54.3102 9.70322 54.3102C6.84554 54.3102 3.98786 54.3102 1.13018 54.3102C0.00339408 54.3102 0 54.3068 0 53.2072C0.0101818 46.0494 0.0101817 38.8882 0.0101817 31.727Z" fill="#252D38"/>
<path d="M117.209 51.6495C117.209 51.2491 117.209 50.9674 117.209 50.6857C117.209 41.3761 117.209 32.0632 117.209 22.7537C117.209 21.5726 117.209 21.5726 118.346 21.5726C121.268 21.5726 124.19 21.5896 127.109 21.559C127.825 21.5522 128.124 21.6914 128.121 22.5059C128.087 34.1267 128.1 45.7509 128.073 57.3717C128.066 60.0054 127.91 62.6323 127.479 65.2354C126.607 70.513 123.345 73.4283 118.275 74.5585C113.679 75.5835 109.013 75.933 104.319 75.967C100.725 75.9907 97.1272 75.9874 93.5331 75.984C93.1699 75.984 92.5896 76.1367 92.5692 75.6412C92.5488 75.1185 93.1326 75.2712 93.4889 75.261C95.3183 75.2237 97.1476 75.2101 98.9769 75.166C101.512 75.1049 104.044 74.9692 106.556 74.6026C112.665 73.7168 115.957 70.3399 116.747 64.2342C117.229 60.4941 117.145 56.737 117.219 52.9867C117.233 52.369 116.907 52.4132 116.503 52.42C113.194 52.4539 109.888 52.3894 106.586 52.1994C103.318 52.0127 100.07 51.6699 96.8761 50.8791C90.8485 49.3858 87.2543 45.588 85.9001 39.5604C85.1569 36.2513 84.9091 32.8981 84.8175 29.528C84.7564 27.1862 84.8209 24.841 84.7835 22.4992C84.7734 21.7864 84.9974 21.5556 85.7203 21.5624C88.7375 21.5964 91.7546 21.6032 94.7718 21.559C95.5796 21.5455 95.7289 21.8441 95.7187 22.5738C95.6678 26.2664 95.6034 29.959 95.9088 33.6414C96.1498 36.5568 96.591 39.428 97.599 42.1975C99.0007 46.053 101.651 48.5848 105.517 49.8677C109.274 51.1133 113.16 51.4697 117.209 51.6495Z" fill="#252D38"/>
<path d="M156.174 24.2025C155.998 24.6233 156.072 24.9797 156.072 25.3259C156.069 34.5064 156.069 43.687 156.069 52.8709C156.069 54.1029 156.069 54.1063 154.793 54.1063C151.905 54.1063 149.013 54.0859 146.125 54.1199C145.412 54.1267 145.188 53.9129 145.191 53.1866C145.212 42.9776 145.215 32.7687 145.191 22.5598C145.188 21.7962 145.405 21.5722 146.172 21.5824C149.125 21.6265 152.078 21.6231 155.03 21.5858C155.791 21.5756 156.218 21.7385 156.069 22.5836C155.967 23.1639 156.307 23.1843 156.744 23.1979C159.439 23.2793 162.137 23.3065 164.825 23.5203C167.642 23.7477 170.432 24.104 173.181 24.8134C178.92 26.2999 182.402 29.9382 183.791 35.6705C184.452 38.3958 184.751 41.1653 184.894 43.9551C185.05 47.0334 184.989 50.1184 184.985 53.2001C184.985 53.828 184.782 54.0418 184.154 54.035C181.072 54.0113 177.99 54.0045 174.909 54.0384C174.176 54.0452 174.081 53.733 174.094 53.1119C174.152 49.9657 174.159 46.8196 173.985 43.6768C173.795 40.2421 173.412 36.8448 172.244 33.5731C170.86 29.6904 168.257 27.0839 164.337 25.7739C161.672 24.8846 158.94 24.44 156.174 24.2025Z" fill="#252D38"/>
<path d="M131.4 37.768C131.4 32.728 131.4 27.688 131.4 22.6481C131.4 21.5993 131.404 21.5993 132.473 21.5993C135.426 21.5993 138.378 21.6231 141.331 21.5824C142.091 21.5722 142.322 21.7928 142.322 22.5632C142.298 32.7382 142.302 42.9132 142.319 53.0915C142.319 53.8042 142.183 54.1335 141.368 54.1199C138.351 54.0758 135.334 54.0859 132.317 54.1165C131.601 54.1233 131.383 53.8959 131.387 53.1764C131.411 48.038 131.4 42.903 131.4 37.768Z" fill="#252D38"/>
<path d="M136.719 17.9247C135.181 17.9247 133.64 17.9044 132.103 17.9349C131.587 17.9451 131.38 17.8365 131.387 17.2595C131.417 14.1507 131.414 11.0385 131.39 7.92963C131.387 7.31193 131.56 7.08454 132.205 7.09133C135.348 7.11848 138.49 7.11509 141.63 7.08794C142.193 7.08454 142.322 7.27121 142.319 7.80066C142.295 10.9434 142.295 14.0862 142.319 17.2256C142.322 17.7618 142.19 17.9485 141.626 17.9349C139.99 17.901 138.355 17.9247 136.719 17.9247Z" fill="#252D38"/>
<path d="M81.0558 53.5846C80.8623 53.5846 80.6723 53.5846 80.4788 53.5846C77.8146 53.5846 75.1504 53.5642 72.4929 53.364C69.4825 53.1366 66.4857 52.804 63.6076 51.8266C59.596 50.4656 57.3798 47.5502 56.4397 43.4538C56.7451 43.4368 56.9895 43.4096 57.2373 43.4096C60.9943 43.4232 64.748 43.318 68.4881 42.9582C70.8537 42.7309 73.2023 42.422 75.4626 41.6244C78.3067 40.6232 80.4211 38.8482 81.4495 35.943C82.264 33.6419 82.3421 31.2899 81.7685 28.9312C80.73 24.6582 78.1777 22.3368 73.82 21.7055C70.2462 21.1896 66.6452 21.3695 63.0544 21.3933C61.6086 21.4034 60.1628 21.4951 58.7442 21.7836C52.9575 22.9647 48.7117 26.0463 46.7025 31.7651C45.3959 35.478 45.2262 39.2826 45.9593 43.1483C46.8688 47.9575 49.6451 51.046 54.3219 52.4816C57.8176 53.5541 61.4084 53.9545 65.0331 54.1548C70.2597 54.4399 75.4932 54.2838 80.7266 54.3245C80.8216 54.3245 80.92 54.3245 81.0151 54.3245C81.2832 54.3279 81.5819 54.2939 81.6022 53.9783C81.6158 53.6525 81.3307 53.588 81.0558 53.5846ZM56.0596 41.4004C55.5946 37.1614 56.1105 33.0853 58.1638 29.2909C59.9117 26.0633 62.6472 24.0066 66.0479 22.761C66.4416 22.6185 66.764 22.649 67.1305 22.8527C68.6476 23.6842 69.7303 24.9162 70.4939 26.4434C71.7429 28.938 72.0687 31.5682 71.5426 34.297C70.7009 38.6615 67.867 41.0203 63.6925 41.991C61.9073 42.405 60.0881 42.5679 58.2554 42.629C57.9975 42.629 57.743 42.6256 57.485 42.629C56.1953 42.6494 56.1987 42.6494 56.0596 41.4004Z" fill="#252D38"/>
</svg>
