<svg width="96" height="97" viewBox="0 0 96 97" fill="none" xmlns="http://www.w3.org/2000/svg">
<path d="M53.2788 60.1022L53.2788 36.1764L53.2332 35.4792C53.0646 34.1923 52.4371 33.0206 51.4775 32.2009C50.5179 31.3811 49.2978 30.9744 48.0637 31.063C46.8295 31.1515 45.6734 31.7287 44.8289 32.6778C43.9844 33.627 43.5144 34.8774 43.5141 36.1764L43.5141 60.1022L43.5596 60.7995C43.7282 62.0864 44.3557 63.2581 45.3153 64.0778C46.2749 64.8976 47.4951 65.3043 48.7292 65.2157C49.9634 65.1272 51.1195 64.55 51.964 63.6008C52.8085 62.6516 53.2784 61.4012 53.2788 60.1022Z" fill="#377B9E"/>
<path d="M55.2369 78.1482L57.7728 75.6122L58.2397 75.0765C59.0376 74.024 59.4063 72.7079 59.2712 71.394C59.1361 70.0802 58.5073 68.8667 57.5119 67.9986C56.5165 67.1305 55.2287 66.6726 53.9087 66.7175C52.5887 66.7623 51.335 67.3065 50.4008 68.2401L47.8648 70.7761L47.0883 71.5035C40.9941 76.8212 31.6856 76.5558 25.8273 70.6975C24.3751 69.2556 23.2212 67.5419 22.4313 65.6541C21.6414 63.7663 21.2311 61.7414 21.2238 59.695C21.2165 57.6486 21.6124 55.6209 22.3887 53.7275C23.1651 51.8341 24.3068 50.1121 25.7487 48.66L28.2945 46.065L28.7565 45.5342C29.561 44.4756 29.9307 43.1496 29.7897 41.8274C29.6488 40.5053 29.008 39.2869 27.9983 38.4217C26.9887 37.5565 25.6866 37.1098 24.3584 37.173C23.0303 37.2362 21.7765 37.8046 20.8536 38.7618L18.3422 41.3223L17.3986 42.3151C8.25234 52.4836 8.61111 68.2254 18.4553 78.0695C20.8652 80.4898 23.7283 82.4117 26.881 83.7255C30.0337 85.0393 33.4143 85.7193 36.8298 85.7266C40.2453 85.7339 43.6287 85.0684 46.787 83.7681C49.9453 82.4678 52.8166 80.5581 55.2369 78.1482Z" fill="#377B9E"/>
<path d="M77.4215 55.9632L74.974 58.4108C74.0398 59.3444 72.7861 59.8886 71.4661 59.9334C70.1461 59.9783 68.8583 59.5204 67.8629 58.6523C66.8675 57.7842 66.2387 56.5707 66.1036 55.2568C65.9685 53.943 66.3372 52.6269 67.1351 51.5744L67.602 51.0387L70.0495 48.5912C72.9652 45.7308 74.6473 41.844 74.7368 37.7604C74.8262 33.6769 73.3158 29.7201 70.5281 26.7349C67.7404 23.7496 63.8962 21.9723 59.8161 21.7823C55.736 21.5923 51.7432 23.0048 48.6902 25.7182L47.9088 26.4505L45.4613 28.898C44.5271 29.8316 43.2733 30.3758 41.9533 30.4207C40.6333 30.4655 39.3455 30.0076 38.3501 29.1395C37.3548 28.2714 36.726 27.0579 36.5909 25.7441C36.4558 24.4303 36.8244 23.1141 37.6223 22.0616L38.0892 21.5259L40.5367 19.0784C45.3302 14.2126 51.8414 11.4217 58.6707 11.3056C65.5 11.1894 72.1024 13.7573 77.0585 18.4573C82.0147 23.1572 84.9291 29.6141 85.1753 36.44C85.4214 43.2659 82.9797 49.9159 78.375 54.9606L77.4215 55.9632Z" fill="#377B9E"/>
</svg>
