<svg xmlns="http://www.w3.org/2000/svg" viewBox="0 0 206 137">
  <path d="M0.0255343 79.4661C0.0255343 64.3432 0.0255343 49.229 0.0255343 34.1063C0.0255343 29.6775 0.102138 25.2486 1.07245 20.9047C3.49823 9.99844 11.6012 2.65386 22.9471 1.00473C27.4156 0.358682 31.8927 -0.0663505 36.4207 0.0186561C45.8345 0.18867 55.2653 -0.499882 64.6364 0.953734C69.0284 1.63379 73.2841 2.77287 77.3526 4.56651C90.4432 10.3215 93.72 21.3468 92.478 32.3807C92.307 33.8938 91.9667 35.3984 91.5668 36.8605C89.456 44.5791 84.451 49.399 76.7994 51.6262C72.2287 52.9607 67.5219 53.5898 62.8575 54.4824C61.5552 54.7289 59.6743 54.6864 59.4359 56.1825C59.172 57.8996 60.9765 58.6392 62.3128 59.3363C64.9684 60.7218 67.8793 61.4189 70.7221 62.2775C75.2673 63.6461 79.744 65.1592 84.1366 66.9953C96.9717 72.3678 103.534 82.2798 105.262 95.7619C106.147 102.681 106.045 109.549 104.309 116.35C102.538 123.278 98.2569 127.886 91.5159 130.266C85.7958 132.289 79.8381 133.224 73.8629 134.125C61.3936 136.012 48.8391 136.063 36.2675 135.91C35.9441 135.91 35.6206 135.91 35.2973 135.893C34.693 135.859 34.1141 135.697 34.0631 135.009C34.012 134.27 34.6164 134.142 35.2037 134.091C36.8889 133.946 38.5742 133.811 40.2594 133.657C47.8006 132.986 55.2737 131.957 62.6448 130.122C71.1988 127.996 76.0164 122.598 77.5484 114.08C79.2594 104.568 78.7317 95.2004 75.5737 86.02C72.7479 77.7912 67.1048 72.1808 59.3593 68.4659C54.2609 66.0178 48.8731 64.4111 43.4938 62.779C41.1872 62.0819 38.8721 61.3679 36.7016 60.3053C35.5526 59.7443 34.4035 59.1152 33.3992 58.3332C31.2628 56.6756 31.4756 55.2049 33.9779 54.0489C35.825 53.1988 37.8252 52.9097 39.8169 52.6207C42.6852 52.2127 45.5621 51.8557 48.4135 51.3796C57.2144 49.926 62.3128 44.5281 64.4492 36.104C65.6493 31.3606 65.7514 26.5747 64.713 21.7719C62.2192 10.1599 53.3246 5.34007 44.5748 2.95988C43.613 2.69637 42.8214 3.1809 42.0469 3.54643C33.6716 7.46523 29.3987 14.3423 27.9262 23.2169C27.3219 26.8893 27.3731 30.587 27.3731 34.2848C27.3645 67.1823 27.3645 100.08 27.3645 132.969C27.3645 136.021 27.3645 136.029 24.3344 136.029C17.1677 136.029 10.001 136.029 2.83433 136.029C0.0085119 136.029 0 136.021 0 133.267C0.0255346 115.339 0.0255343 97.4025 0.0255343 79.4661Z" fill="#ffff"/>
<path d="M203.281 134.21C202.795 134.21 202.319 134.21 201.833 134.21C195.152 134.21 188.47 134.159 181.806 133.657C174.256 133.088 166.74 132.255 159.523 129.807C149.462 126.398 143.904 119.096 141.546 108.836C142.312 108.793 142.925 108.724 143.546 108.724C152.969 108.759 162.382 108.495 171.763 107.594C177.695 107.024 183.585 106.251 189.254 104.254C196.386 101.745 201.689 97.2997 204.268 90.023C206.31 84.2601 206.506 78.3688 205.068 72.461C202.464 61.7587 196.063 55.9443 185.134 54.3631C176.172 53.071 167.14 53.5215 158.135 53.5811C154.51 53.6065 150.883 53.836 147.326 54.5586C132.813 57.5168 122.166 65.2355 117.126 79.5591C113.85 88.8586 113.425 98.3882 115.263 108.071C117.544 120.116 124.507 127.851 136.235 131.447C145.002 134.133 154.007 135.136 163.097 135.638C176.205 136.352 189.33 135.961 202.455 136.063C202.693 136.063 202.94 136.063 203.178 136.063C203.851 136.072 204.599 135.986 204.65 135.196C204.685 134.38 203.97 134.219 203.281 134.21ZM140.593 103.692C139.427 93.0748 140.721 82.8662 145.87 73.362C150.254 65.2779 157.114 60.1265 165.643 57.0068C166.63 56.6498 167.438 56.7263 168.358 57.2363C172.162 59.319 174.878 62.4048 176.793 66.23C179.925 72.478 180.742 79.0658 179.422 85.9007C177.312 96.8322 170.205 102.741 159.736 105.172C155.259 106.208 150.697 106.616 146.1 106.77C145.453 106.77 144.815 106.761 144.168 106.77C140.934 106.821 140.942 106.821 140.593 103.692Z" fill="#ffff"/>
</svg>